<svg xmlns="http://www.w3.org/2000/svg" width="49" height="54" viewBox="0 0 49 54">
  <g id="Group_35410" data-name="Group 35410" transform="translate(-24.165)">
    <g id="Group_35409" data-name="Group 35409" transform="translate(24.165)">
      <g id="Group_35408" data-name="Group 35408" transform="translate(0)">
        <g id="Group_35407" data-name="Group 35407">
          <path id="Path_27008" data-name="Path 27008" d="M124.918,28.665a14.334,14.334,0,1,0-14.126-14.333A14.268,14.268,0,0,0,124.918,28.665Z" transform="translate(-100.414)" fill="#c2c2c2"/>
          <path id="Path_27009" data-name="Path 27009" d="M73.06,258.269a13.4,13.4,0,0,0-1.427-2.629,17.65,17.65,0,0,0-12.227-7.761,2.6,2.6,0,0,0-1.8.438,15.048,15.048,0,0,1-17.875,0,2.314,2.314,0,0,0-1.8-.438A17.523,17.523,0,0,0,25.7,255.64a15.445,15.445,0,0,0-1.427,2.629,1.341,1.341,0,0,0,.062,1.189,24.981,24.981,0,0,0,1.676,2.5,23.722,23.722,0,0,0,2.855,3.255,37.289,37.289,0,0,0,2.855,2.5,28.113,28.113,0,0,0,33.763,0,27.355,27.355,0,0,0,2.855-2.5,28.825,28.825,0,0,0,2.855-3.255,21.954,21.954,0,0,0,1.676-2.5A1.075,1.075,0,0,0,73.06,258.269Z" transform="translate(-24.165 -219.353)" fill="#c2c2c2"/>
        </g>
      </g>
    </g>
  </g>
</svg>
